<?xml version="1.0" encoding="UTF-8"?>
<svg xmlns="http://www.w3.org/2000/svg" xmlns:xlink="http://www.w3.org/1999/xlink" width="36px" height="39px" viewBox="0 0 36 39" version="1.1">
<defs>
<linearGradient id="linear0" gradientUnits="userSpaceOnUse" x1="992.35" y1="1489.22" x2="836.76" y2="1489.59" gradientTransform="matrix(0.0301679,-0.00052759,-0.000529261,-0.0522314,-4.220509,112.16358)">
<stop offset="0" style="stop-color:rgb(68.235294%,83.529412%,50.588235%);stop-opacity:1;"/>
<stop offset="0.1" style="stop-color:rgb(63.921569%,81.960784%,48.235294%);stop-opacity:1;"/>
<stop offset="0.71" style="stop-color:rgb(39.215686%,72.156863%,36.078431%);stop-opacity:1;"/>
<stop offset="1" style="stop-color:rgb(29.803922%,68.627451%,31.372549%);stop-opacity:1;"/>
</linearGradient>
<linearGradient id="linear1" gradientUnits="userSpaceOnUse" x1="-253.78" y1="2173.72" x2="-248.93" y2="1556.26" gradientTransform="matrix(-0.0529261,-0.000000000000000006,0.000000000000000006,-0.052759,4.143937,119.918102)">
<stop offset="0" style="stop-color:rgb(20%,60%,40%);stop-opacity:1;"/>
<stop offset="0.09" style="stop-color:rgb(24.313725%,61.960784%,40.784314%);stop-opacity:1;"/>
<stop offset="1" style="stop-color:rgb(68.235294%,83.529412%,50.588235%);stop-opacity:1;"/>
</linearGradient>
<linearGradient id="linear2" gradientUnits="userSpaceOnUse" x1="-874.43" y1="631.83" x2="-1093.65" y2="632.35" gradientTransform="matrix(-0.000529261,0.0332382,-0.0529261,-0.00052759,64.221454,44.409383)">
<stop offset="0.21" style="stop-color:rgb(68.235294%,83.529412%,50.588235%);stop-opacity:1;"/>
<stop offset="0.21" style="stop-color:rgb(67.843137%,83.529412%,50.196078%);stop-opacity:1;"/>
<stop offset="0.58" style="stop-color:rgb(47.45098%,75.294118%,40%);stop-opacity:1;"/>
<stop offset="0.85" style="stop-color:rgb(34.509804%,70.588235%,33.72549%);stop-opacity:1;"/>
<stop offset="1" style="stop-color:rgb(29.803922%,68.627451%,31.372549%);stop-opacity:1;"/>
</linearGradient>
<linearGradient id="linear3" gradientUnits="userSpaceOnUse" x1="-427.19" y1="714.27" x2="-437.1" y2="1283.93" gradientTransform="matrix(0.000000000000000003,0.052759,-0.0529261,0.000000000000000003,70.902849,27.565536)">
<stop offset="0" style="stop-color:rgb(20%,60%,40%);stop-opacity:1;"/>
<stop offset="0.09" style="stop-color:rgb(24.313725%,61.960784%,40.784314%);stop-opacity:1;"/>
<stop offset="1" style="stop-color:rgb(68.235294%,83.529412%,50.588235%);stop-opacity:1;"/>
</linearGradient>
</defs>
<g id="surface1">
<path style=" stroke:none;fill-rule:nonzero;fill:url(#linear0);" d="M 17.03125 38.976562 L 21.828125 38.925781 C 22.007812 38.925781 22.175781 38.78125 22.285156 38.539062 L 25.640625 31.261719 C 25.949219 30.585938 25.664062 29.582031 25.164062 29.578125 L 14.65625 29.550781 C 14.300781 29.550781 14.023438 30.089844 14.070312 30.707031 L 14.628906 38.085938 C 14.667969 38.609375 14.925781 39.003906 15.234375 39 Z M 17.03125 38.976562 "/>
<path style=" stroke:none;fill-rule:nonzero;fill:url(#linear1);" d="M 12.683594 38.296875 L 12.683594 0.738281 C 12.683594 0.367188 12.984375 0.0625 13.359375 0.0625 L 21.566406 0.0625 C 21.941406 0.0625 22.242188 0.367188 22.242188 0.738281 L 22.242188 38.296875 C 22.242188 38.667969 21.941406 38.96875 21.566406 38.96875 L 13.359375 38.96875 C 12.984375 38.96875 12.683594 38.667969 12.683594 38.296875 Z M 12.683594 38.296875 "/>
<path style=" stroke:none;fill-rule:nonzero;fill:url(#linear2);" d="M 35.976562 4.003906 L 35.914062 9.320312 C 35.914062 9.519531 35.769531 9.707031 35.527344 9.828125 L 28.128906 13.550781 C 27.445312 13.898438 26.425781 13.582031 26.421875 13.023438 L 26.410156 1.382812 C 26.410156 0.984375 26.957031 0.679688 27.578125 0.730469 L 35.074219 1.339844 C 35.601562 1.382812 36.003906 1.671875 36 2.011719 Z M 35.976562 4.003906 "/>
<path style=" stroke:none;fill-rule:nonzero;fill:url(#linear3);" d="M 35.3125 9.53125 L 0.679688 9.53125 C 0.304688 9.53125 0 9.230469 0 8.855469 L 0 0.675781 C 0 0.300781 0.304688 0 0.679688 0 L 35.3125 0 C 35.683594 0 35.988281 0.300781 35.988281 0.675781 L 35.988281 8.855469 C 35.988281 9.230469 35.683594 9.53125 35.3125 9.53125 Z M 35.3125 9.53125 "/>
</g>
</svg>
