<?xml version="1.0" standalone="no"?>
<!DOCTYPE svg PUBLIC "-//W3C//DTD SVG 1.0//EN" "http://www.w3.org/TR/2001/REC-SVG-20010904/DTD/svg10.dtd">
<svg xmlns="http://www.w3.org/2000/svg" xmlns:xlink="http://www.w3.org/1999/xlink" id="body_1" width="68" height="74">

<g transform="matrix(0.09985316 0 0 0.10000001 0 0)">
    <path transform="matrix(1 0 0 1 15.5976305 -0.1276505)"  d="M0 0C 0.95125985 -0.00301597 1.9025197 -0.00603194 2.8826058 -0.0091393C 3.9318776 -0.00736983 4.981149 -0.00560036 6.062217 -0.00377727C 7.178208 -0.0058299 8.294199 -0.00788253 9.444007 -0.00999737C 13.222319 -0.01569839 17.000595 -0.01420631 20.77891 -0.0127914C 23.499594 -0.01482234 26.220274 -0.01834687 28.940954 -0.0217948C 35.658974 -0.02938635 42.376987 -0.03156844 49.095013 -0.03212385C 57.138386 -0.03303635 65.18175 -0.03970045 73.22512 -0.04647068C 92.667015 -0.06254431 112.10892 -0.06843533 131.55081 -0.07321942C 140.74403 -0.07555382 149.93726 -0.07915628 159.13046 -0.0829148C 190.58626 -0.09575099 222.04204 -0.10647054 253.49783 -0.1099174C 255.4731 -0.11013904 257.44836 -0.11036082 259.4236 -0.11058275C 261.40372 -0.1108034 263.3838 -0.11102388 265.3639 -0.1112442C 269.33643 -0.11168676 273.30896 -0.11213387 277.28152 -0.11258388C 278.26648 -0.11269327 279.25143 -0.11280266 280.26627 -0.11291536C 312.21548 -0.11654732 344.16467 -0.13247225 376.11386 -0.15577424C 409.87527 -0.18035305 443.6367 -0.19408932 477.3981 -0.19528532C 481.102 -0.19545677 484.8059 -0.19567221 488.5098 -0.19591975C 489.42184 -0.19597553 490.33386 -0.19603129 491.27353 -0.19608875C 505.97006 -0.19724084 520.66656 -0.20827623 535.3631 -0.22280681C 550.12604 -0.23715104 564.889 -0.24042054 579.652 -0.23236683C 588.429 -0.22790088 597.206 -0.23180962 605.98303 -0.24760534C 611.8411 -0.25732458 617.69916 -0.25620645 623.55725 -0.2461691C 626.89825 -0.24075484 630.2389 -0.24177986 633.5799 -0.25267783C 637.1751 -0.26366714 640.76984 -0.25635567 644.365 -0.2442863C 645.4072 -0.25188148 646.4495 -0.2594767 647.5233 -0.26730204C 652.8932 -0.22810721 656.7984 0.03716946 661.40234 3.1276505C 665.05005 7.4179325 665.9019 10.442428 665.89685 16.01469C 665.9017 16.683168 665.9065 17.351648 665.9115 18.040384C 665.92267 20.26755 665.90546 22.493555 665.8882 24.720669C 665.8904 26.322697 665.8942 27.924723 665.8997 29.526745C 665.9094 33.869984 665.8941 38.21281 665.8738 42.556C 665.8562 47.108173 665.85974 51.660336 665.86053 56.212536C 665.85864 63.859848 665.8413 71.507 665.81396 79.15426C 665.7826 87.981544 665.772 96.80866 665.77344 105.635994C 665.77484 115.04871 665.7609 124.461365 665.74255 133.87407C 665.73834 136.57849 665.7369 139.28291 665.7361 141.98734C 665.7341 146.24815 665.7218 150.50883 665.7018 154.7696C 665.6959 156.32838 665.6934 157.88719 665.69464 159.44598C 665.70374 179.11946 665.70374 179.11946 661.2656 184.92062C 657.8624 187.54384 654.419 189.51083 650.58984 191.44016C 649.7793 191.85765 648.9687 192.27515 648.13354 192.70529C 645.23 194.19324 642.3173 195.66208 639.40234 197.12766C 638.2464 197.70982 637.09045 198.29199 635.8994 198.89182C 625.7039 204.02153 615.4857 209.10562 605.26746 214.18991C 600.3738 216.62514 595.48096 219.06221 590.58984 221.50266C 589.9138 221.83995 589.2378 222.17725 588.5413 222.52477C 579.9718 226.80388 571.44476 231.15166 562.9865 235.64755C 554.8071 239.99251 546.54376 244.16772 538.2637 248.31711C 535.60913 249.64935 532.9589 250.9901 530.3086 252.33078C 528.59534 253.19067 526.88184 254.05006 525.16797 254.9089C 524.3888 255.30469 523.60956 255.70047 522.8067 256.10825C 513.01447 260.9845 504.18195 262.94907 493.52737 259.44016C 489.08466 257.86642 486.95374 256.11108 484.40237 252.12766C 483.9393 249.12248 483.70773 246.46855 483.65628 243.45578C 483.62756 242.58939 483.59885 241.72299 483.56924 240.83035C 483.23157 229.1843 483.2962 217.52705 483.33987 205.87766C 483.3605 198.04015 483.38113 190.20265 483.40237 182.12766C 457.99237 182.12766 432.58237 182.12766 406.40237 182.12766C 406.40237 307.19766 406.40237 432.26764 406.40237 561.1276C 425.21237 561.1276 444.02237 561.1276 463.40237 561.1276C 469.93805 566.57404 471.86563 569.28503 472.75394 577.2995C 473.32373 590.7945 467.1895 601.9207 461.47424 613.89307C 459.80246 617.397 458.14783 620.909 456.49222 624.4206C 456.1507 625.14435 455.80917 625.86804 455.4573 626.6137C 451.9285 634.1062 448.50275 641.6443 445.08987 649.1901C 438.76224 663.16925 432.35812 677.1119 425.91434 691.0378C 425.16425 692.6589 424.41415 694.27997 423.6641 695.90106C 423.2998 696.6883 422.9355 697.47546 422.56015 698.2865C 420.26974 703.23975 417.9962 708.2004 415.7344 713.1667C 414.91202 714.967 414.91202 714.967 414.07303 716.80365C 413.0794 718.98065 412.08966 721.15936 411.10477 723.3403C 404.92145 736.85895 404.92145 736.85895 398.3168 739.52203C 395.32755 740.46765 392.53665 740.5089 389.41284 740.5153C 388.74548 740.5207 388.07812 740.5261 387.39053 740.5317C 385.1735 740.54584 382.95706 740.5388 380.74002 740.5317C 379.14282 740.5374 377.54562 740.5444 375.94846 740.5525C 371.62418 740.57043 367.30008 740.5693 362.97577 740.56354C 359.3623 740.5605 355.74887 740.5666 352.1354 740.5726C 343.61115 740.5866 335.087 740.5851 326.56277 740.57367C 317.77338 740.5622 308.9843 740.5763 300.19498 740.6031C 292.64148 740.62524 285.0881 740.6319 277.53458 740.62604C 273.0262 740.6226 268.51807 740.62506 264.00974 740.6423C 259.7718 740.6577 255.53432 740.6538 251.2964 740.63495C 249.7428 740.6313 248.18916 740.6344 246.63559 740.64484C 244.5115 740.6581 242.38892 740.6465 240.26491 740.62885C 238.48381 740.62854 238.48381 740.62854 236.66673 740.62823C 231.83904 739.88794 228.7886 737.86597 225.75302 734.0594C 223.86658 729.96466 223.99274 726.39606 224.03322 721.9385C 224.02977 721.0058 224.0263 720.0731 224.02274 719.1122C 224.01476 715.96936 224.02829 712.827 224.04161 709.6842C 224.0403 707.4154 224.03767 705.14655 224.03384 702.87775C 224.02711 696.6295 224.03915 690.3814 224.05417 684.13324C 224.06577 678.09143 224.0633 672.04974 224.06113 666.00793C 224.05719 653.6474 224.06721 641.2869 224.08517 628.92645C 224.10292 616.6861 224.11447 604.44574 224.11774 592.2053C 224.11795 591.4446 224.11815 590.68384 224.11836 589.9C 224.11938 586.03656 224.12029 582.17316 224.12114 578.3097C 224.12744 550.93726 224.14766 523.5648 224.17606 496.19235C 224.2036 469.5986 224.22485 443.00485 224.23758 416.4111C 224.23798 415.59152 224.23836 414.77194 224.23877 413.92752C 224.24272 405.69705 224.24655 397.46658 224.25029 389.2361C 224.25789 372.46936 224.26636 355.7026 224.27534 338.93582C 224.27596 337.77945 224.27596 337.77945 224.27658 336.5997C 224.3042 285.109 224.35179 233.61832 224.40237 182.12766C 222.63402 182.13318 222.63402 182.13318 220.82993 182.13882C 192.83928 182.22548 164.84865 182.29143 136.85791 182.33191C 133.41203 182.33691 129.96616 182.34209 126.52029 182.34738C 125.83428 182.34842 125.14828 182.34947 124.44148 182.35056C 113.33668 182.36795 102.23196 182.39949 91.1272 182.43626C 79.73099 182.47368 68.33484 182.49559 56.93857 182.504C 50.538143 182.50922 44.137905 182.5215 37.73754 182.55057C 31.713776 182.57771 25.690275 182.5861 19.666454 182.58008C 17.45534 182.58118 15.244215 182.58914 13.033153 182.60448C 10.013722 182.62437 6.9952936 182.61958 3.9758403 182.60867C 3.1013122 182.62032 2.2267838 182.63197 1.3257548 182.64398C -4.4616084 182.58743 -7.8537536 181.49805 -12.5976305 178.12766C -15.491063 173.85571 -15.973671 170.43076 -15.978581 165.33432C -15.983262 164.67596 -15.987942 164.01762 -15.9927635 163.33932C -16.004671 161.14682 -15.995274 158.95494 -15.985814 156.76242C -15.989882 155.18507 -15.995225 153.60774 -16.001745 152.03041C -16.015402 147.75563 -16.010126 143.48108 -16.000607 139.2063C -15.993002 134.72878 -16.00006 130.25128 -16.004766 125.773766C -16.010221 118.25514 -16.003038 110.736595 -15.988744 103.21798C -15.972418 94.53034 -15.977707 85.84292 -15.994224 77.15528C -16.007845 69.690994 -16.009754 62.226765 -16.001907 54.762466C -15.997234 50.306667 -15.996594 45.85097 -16.006517 41.395184C -16.015194 37.205746 -16.00915 33.01658 -15.991834 28.82717C -15.987873 27.29131 -15.988996 25.755426 -15.995622 24.219576C -16.003845 22.119738 -15.993508 20.020767 -15.978581 17.920986C -15.97745 16.74704 -15.976319 15.573094 -15.975154 14.363574C -15.398785 9.423246 -13.73434 6.1791067 -10.0976305 2.8151505C -6.6383095 0.48010865 -4.073616 0.00255411 0 0z" stroke="none" fill="#71B773" fill-rule="nonzero" />
    <path transform="matrix(1 0 0 1 241 182)"  d="M0 0C 59.73 0 119.46 0 181 0C 181 125.07 181 250.14 181 379C 199.81 379 218.62 379 238 379C 244.53569 384.4464 246.46326 387.15735 247.35156 395.17188C 247.92136 408.66684 241.78714 419.7931 236.07187 431.7654C 234.4001 435.26935 232.74545 438.78137 231.08984 442.29297C 230.74832 443.0167 230.40681 443.74042 230.05495 444.48608C 226.52614 451.97858 223.10037 459.51666 219.6875 467.0625C 213.35986 481.04156 206.95575 494.98425 200.51196 508.91016C 199.76187 510.53125 199.0118 512.15234 198.26172 513.77344C 197.89742 514.5606 197.53313 515.34784 197.15779 516.1589C 194.86737 521.1121 192.59381 526.0727 190.33203 531.03906C 189.78378 532.23926 189.23552 533.43945 188.67065 534.676C 187.67705 536.85297 186.6873 539.03174 185.7024 541.21265C 179.51907 554.73126 179.51907 554.73126 172.91443 557.3944C 169.92517 558.34 167.13426 558.3813 164.01048 558.3877C 163.34311 558.39307 162.67575 558.39844 161.98816 558.404C 159.77113 558.4182 157.5547 558.4112 155.33765 558.40405C 153.74045 558.4098 152.14326 558.41675 150.54608 558.42487C 146.22179 558.44275 141.8977 558.4416 137.5734 558.4359C 133.95992 558.4328 130.3465 558.4389 126.73303 558.44495C 118.208786 558.459 109.68465 558.45746 101.1604 558.44604C 92.37102 558.4346 83.58194 558.44867 74.7926 558.47546C 67.23911 558.4976 59.685726 558.5042 52.13221 558.49835C 47.62385 558.495 43.11569 558.49744 38.607357 558.5146C 34.369427 558.5301 30.131943 558.5261 25.894028 558.5073C 24.340425 558.5036 22.786789 558.5067 21.233217 558.5172C 19.109137 558.5304 16.986551 558.51886 14.862534 558.5012C 13.08144 558.5009 13.08144 558.5009 11.264365 558.50055C 6.4364147 557.76025 3.385423 555.73846 0.35083407 551.9306C -1.5339605 547.8416 -1.4109917 544.281 -1.3719368 539.8292C -1.375698 538.89856 -1.379459 537.96783 -1.3833342 537.0089C -1.392317 533.87286 -1.3798071 530.7373 -1.3674927 527.60126C -1.369516 525.3373 -1.3728541 523.07324 -1.3773983 520.80927C -1.3860705 514.5744 -1.3759584 508.33966 -1.3628559 502.10477C -1.3530991 496.07584 -1.3574076 490.04694 -1.361367 484.018C -1.3689599 471.6835 -1.3624374 459.34903 -1.3477554 447.01456C -1.3332323 434.7993 -1.3244696 422.58408 -1.3235703 410.3688C -1.3235092 409.6096 -1.3234481 408.85034 -1.3233851 408.0681C -1.3231556 404.9864 -1.3229685 401.90463 -1.322837 398.8229C -1.3216252 370.73087 -1.3059205 342.6389 -1.28125 314.54688C -1.2579485 288.00845 -1.2437823 261.47006 -1.2402344 234.93164C -1.2401229 234.11385 -1.2400113 233.29604 -1.2398964 232.45345C -1.2394476 229.15648 -1.2390057 225.85951 -1.238564 222.56255C -1.2383436 220.91963 -1.2381223 219.27672 -1.2379001 217.63379C -1.2376788 215.99498 -1.23746 214.35617 -1.2372439 212.71736C -1.2337322 186.64848 -1.2222718 160.5796 -1.2094375 134.51073C -1.2057148 126.87177 -1.202451 119.23283 -1.2001886 111.59388C -1.1953857 95.52754 -1.1883311 79.46122 -1.1720409 63.39489C -1.1653745 56.747807 -1.1603647 50.100727 -1.1595802 43.45364C -1.1587977 37.379456 -1.1534346 31.305294 -1.1442608 25.231117C -1.1417366 23.023323 -1.1409259 20.815527 -1.1419195 18.607733C -1.1430025 15.627595 -1.1380417 12.64753 -1.1314278 9.6674C -1.1331972 8.792275 -1.1349667 7.9171505 -1.1367898 7.0155063C -1.1141595 1.1141595 -1.1141595 1.1141595 0 0z" stroke="none" fill="#7BBC75" fill-rule="nonzero" />
    <path transform="matrix(1 0 0 1 679 176)"  d="M0 0C 0.75 1.625 0.75 1.625 1 4C -2.0645814 10.278575 -6.6856074 12.405703 -12.796875 15.3984375C -13.800874 15.905875 -14.804872 16.413313 -15.839294 16.936127C -19.218782 18.639301 -22.609251 20.319366 -26 22C -28.464495 23.23412 -30.926517 24.473133 -33.38867 25.711914C -41.33226 29.703428 -49.29043 33.66548 -57.25 37.625C -62.6315 40.302097 -68.01223 42.980724 -73.390625 45.664062C -74.038864 45.987465 -74.6871 46.310863 -75.35499 46.644066C -83.738686 50.830166 -92.07676 55.09103 -100.35217 59.488068C -108.5535 63.842354 -116.83742 68.02944 -125.13867 72.18945C -127.79324 73.521706 -130.44344 74.86244 -133.09375 76.203125C -134.80704 77.06302 -136.52057 77.92242 -138.23438 78.78125C -139.0136 79.17703 -139.79282 79.572815 -140.59564 79.98059C -150.38791 84.85684 -159.22041 86.82141 -169.875 83.3125C -174.31786 81.738716 -176.45001 79.98477 -179 76C -179.63893 73.104385 -179.69267 70.25105 -179.74219 67.29297C -179.77069 66.425446 -179.79921 65.55792 -179.82858 64.66411C -179.91255 61.775974 -179.96127 58.889084 -180 56C -180.01454 54.986656 -180.02908 53.973312 -180.04407 52.92926C -180.12398 46.48962 -180.1429 40.05116 -180.13037 33.611084C -180.1249 30.250444 -180.13042 26.889933 -180.13672 23.529297C -180.13606 21.390625 -180.13478 19.251953 -180.13281 17.113281C -180.13585 15.607412 -180.13585 15.607412 -180.13895 14.071121C -180.13579 13.154734 -180.13264 12.238346 -180.1294 11.294189C -180.1286 10.486255 -180.1278 9.678319 -180.12698 8.8459015C -180 7 -180 7 -179 6C -176.81136 5.8973126 -174.61934 5.8664412 -172.4283 5.861969C -171.73338 5.8591475 -171.03848 5.8563266 -170.32251 5.85342C -167.97647 5.845037 -165.63048 5.8437324 -163.28442 5.842285C -161.6093 5.8376193 -159.93419 5.8324766 -158.25906 5.826889C -154.64243 5.8155866 -151.0258 5.807163 -147.40916 5.80077C -141.69035 5.790112 -135.97162 5.769872 -130.25285 5.74765C -113.987526 5.6856546 -97.7222 5.6317267 -81.45679 5.598633C -72.48063 5.5802894 -63.504578 5.551354 -54.528496 5.510628C -49.776413 5.489549 -45.024452 5.4740996 -40.27232 5.471821C -35.799767 5.4696736 -31.327473 5.4537983 -26.855 5.427431C -25.214338 5.420238 -23.573645 5.418137 -21.93297 5.4215336C -19.690546 5.4254336 -17.44895 5.410957 -15.206619 5.3919983C -13.952436 5.388688 -12.698253 5.385378 -11.406064 5.3819675C -6.7015033 4.854382 -3.34944 3.34944 0 0z" stroke="none" fill="#83C46B" fill-rule="nonzero" />
    <path transform="matrix(1 0 0 1 428.27246 560.6936)"  d="M0 0C 1.6524674 -0.02398109 1.6524674 -0.02398109 3.3383179 -0.04844666C 4.534105 -0.05380936 5.7298913 -0.05917206 6.961914 -0.06469727C 8.187833 -0.07372574 9.413752 -0.08275421 10.676819 -0.09205627C 13.276057 -0.10658922 15.875333 -0.11545303 18.47461 -0.11914062C 22.447405 -0.12556635 26.419125 -0.18015678 30.391602 -0.23071289C 32.91503 -0.24017921 35.438473 -0.24741323 37.961914 -0.25219727C 39.149605 -0.2717296 40.337296 -0.2912619 41.560974 -0.3113861C 50.774475 -0.26113078 50.774475 -0.26113078 54.408203 2.6264648C 59.878567 8.947326 60.089645 15.196292 60.32129 23.255615C 59.427845 33.61901 53.217594 43.8166 48.799408 53.071808C 47.12764 56.57575 45.472996 60.08777 43.817383 63.599365C 43.47587 64.32309 43.13435 65.046814 42.782486 65.792465C 39.253674 73.28497 35.827915 80.823044 32.41504 88.3689C 26.840557 100.684105 21.210373 112.97252 15.540039 125.2439C 15.160058 126.06626 14.780076 126.88862 14.38858 127.7359C 12.533281 131.75058 10.677264 135.76492 8.820801 139.77905C 5.744116 146.43219 2.6734695 153.0881 -0.39746094 159.7439C -1.3583691 161.82594 -2.319303 163.90797 -3.2802734 165.98999C -3.6684425 166.83102 -4.0566115 167.67206 -4.456543 168.53857C -4.7257957 169.12195 -4.995049 169.70534 -5.272461 170.3064C -6.2624607 170.3064 -7.252461 170.3064 -8.272461 170.3064C -7.942461 169.31639 -7.612461 168.3264 -7.272461 167.3064C -7.184485 165.10408 -7.159261 162.89911 -7.1656647 160.69505C -7.1664996 159.68265 -7.1664996 159.68265 -7.1673517 158.64978C -7.1703925 156.38351 -7.180579 154.11732 -7.190674 151.85107C -7.194229 150.22829 -7.197315 148.60548 -7.1999664 146.9827C -7.2065215 143.48611 -7.2160835 139.98958 -7.2278614 136.49301C -7.2461247 130.96841 -7.255745 125.443825 -7.2637787 119.919205C -7.287954 104.2088 -7.323868 88.49844 -7.368408 72.788086C -7.392926 64.11306 -7.410306 55.438053 -7.4199677 46.763C -7.4265256 41.26657 -7.4421153 35.770267 -7.464285 30.273882C -7.475982 26.860575 -7.4793806 23.447296 -7.480383 20.03397C -7.4825377 18.44643 -7.488154 16.85889 -7.4974136 15.271376C -7.509531 13.111064 -7.5094595 10.951092 -7.506241 8.790756C -7.509383 7.5797296 -7.5125256 6.368703 -7.5157633 5.1209784C -7.070075 -0.03485655 -4.5257206 0.04952483 0 0z" stroke="none" fill="#8FC971" fill-rule="nonzero" />
</g>
</svg>
